name rise30.3154peak39.0474fall46.5389.mot
datacolumns 19
datarows 35
range 18.97160200000000 19.02826200000000
endheader
time	ground_force1_vx	ground_force1_vy	ground_force1_vz	ground_force1_px	ground_force1_py	ground_force1_pz	ground_force2_vx	ground_force2_vy	ground_force2_vz	ground_force2_px	ground_force2_py	ground_force2_pz	ground_torque1_x	ground_torque1_y	ground_torque1_z	ground_torque2_x	ground_torque2_y	ground_torque2_z	
18.97160200000000	-48.67664200000000	819.57275200000004	55.89213000000000	0.16309500000000	0.00000000000000	0.11173200000000	0.00000000000000	0.00000000000000	0.00000000000000	0.00000000000000	0.00000000000000	0.00000000000000	0.00000000000000	29.16636800000000	0.00000000000000	0.00000000000000	0.00000000000000	0.00000000000000	
18.97326700000000	-48.97274800000000	816.73670200000004	55.75972000000000	0.16235300000000	0.00000000000000	0.11168400000000	0.00000000000000	0.00000000000000	0.00000000000000	0.00000000000000	0.00000000000000	0.00000000000000	0.00000000000000	29.04865100000000	0.00000000000000	0.00000000000000	0.00000000000000	0.00000000000000	
18.97493200000000	-49.27484900000000	813.81832099999997	55.60834700000000	0.16161300000000	0.00000000000000	0.11163400000000	0.00000000000000	0.00000000000000	0.00000000000000	0.00000000000000	0.00000000000000	0.00000000000000	0.00000000000000	28.92791900000000	0.00000000000000	0.00000000000000	0.00000000000000	0.00000000000000	
18.97660200000000	-49.58360600000000	810.81904899999995	55.43773400000000	0.16087600000000	0.00000000000000	0.11158100000000	0.00000000000000	0.00000000000000	0.00000000000000	0.00000000000000	0.00000000000000	0.00000000000000	0.00000000000000	28.80432400000000	0.00000000000000	0.00000000000000	0.00000000000000	0.00000000000000	
18.97826700000000	-49.89965500000000	807.74017300000003	55.24762600000000	0.16014000000000	0.00000000000000	0.11152500000000	-2.03895100000000	3.72901100000000	1.33343500000000	0.00000000000000	0.00000000000000	0.00000000000000	0.00000000000000	28.67801400000000	0.00000000000000	0.00000000000000	0.44932700000000	0.00000000000000	
18.97993400000000	-50.22360200000000	804.58282899999995	55.03778800000000	0.15940500000000	0.00000000000000	0.11146600000000	-3.24414800000000	7.31264600000000	2.21347500000000	0.00000000000000	0.00000000000000	0.00000000000000	0.00000000000000	28.54913800000000	0.00000000000000	0.00000000000000	0.76108600000000	0.00000000000000	
18.98159300000000	-50.55601700000000	801.34798400000000	54.80801000000000	0.15867100000000	0.00000000000000	0.11140500000000	-4.60404200000000	11.66079400000000	3.22562900000000	0.00000000000000	0.00000000000000	0.00000000000000	0.00000000000000	28.41784400000000	0.00000000000000	0.00000000000000	1.12255700000000	0.00000000000000	
18.98326200000000	-50.89743100000000	798.03643499999998	54.55810400000000	0.15793700000000	0.00000000000000	0.11134000000000	-6.07660800000000	16.73260000000000	4.34416300000000	0.00000000000000	0.00000000000000	0.00000000000000	0.00000000000000	28.28427700000000	0.00000000000000	0.00000000000000	1.52539900000000	0.00000000000000	
18.98492800000000	-51.24832900000000	794.64880200000005	54.28790500000000	0.15720300000000	0.00000000000000	0.11127300000000	-7.60962400000000	22.45416000000000	5.53556100000000	0.00000000000000	0.00000000000000	0.00000000000000	0.00000000000000	28.14857800000000	0.00000000000000	0.00000000000000	1.95847600000000	0.00000000000000	
18.98659900000000	-51.60914700000000	791.18552099999999	53.99727400000000	0.15646800000000	0.00000000000000	0.11120200000000	-9.14410600000000	28.72419200000000	6.76073100000000	0.36104800000000	0.00000000000000	-0.07499400000000	0.00000000000000	28.01088600000000	0.00000000000000	0.00000000000000	4.16378300000000	0.00000000000000	
18.98826700000000	-51.98026800000000	787.64684399999999	53.68609400000000	0.15573300000000	0.00000000000000	0.11112800000000	-10.61862600000000	35.42265400000000	7.97787400000000	0.36674000000000	0.00000000000000	-0.07599100000000	0.00000000000000	27.87133400000000	0.00000000000000	0.00000000000000	4.98034700000000	0.00000000000000	
18.98992700000000	-52.36201700000000	784.03283299999998	53.35427300000000	0.15499600000000	0.00000000000000	0.11105200000000	-11.97395000000000	42.42117400000000	9.14565900000000	0.37176900000000	0.00000000000000	-0.07690200000000	0.00000000000000	27.73005100000000	0.00000000000000	0.00000000000000	5.78206900000000	0.00000000000000	
18.99160200000000	-52.75465400000000	780.34336199999996	53.00174800000000	0.15425900000000	0.00000000000000	0.11097200000000	-13.15736800000000	49.59377800000000	10.22625900000000	0.37624700000000	0.00000000000000	-0.07774200000000	0.00000000000000	27.58715900000000	0.00000000000000	0.00000000000000	6.54417600000000	0.00000000000000	
18.99326800000000	-53.15837500000000	776.57811400000003	52.62847700000000	0.15352000000000	0.00000000000000	0.11088800000000	-14.12616500000000	56.82651200000000	11.18785700000000	0.38026200000000	0.00000000000000	-0.07851900000000	0.00000000000000	27.44277500000000	0.00000000000000	0.00000000000000	7.24524000000000	0.00000000000000	
18.99492900000000	-53.57330500000000	772.73658599999999	52.23444800000000	0.15278000000000	0.00000000000000	0.11080200000000	-14.84989700000000	64.02490200000000	12.00639100000000	0.38388500000000	0.00000000000000	-0.07924300000000	0.00000000000000	27.29700700000000	0.00000000000000	0.00000000000000	7.86840200000000	0.00000000000000	
18.99659500000000	-53.99949300000000	768.81808799999999	51.81967300000000	0.15203900000000	0.00000000000000	0.11071100000000	-15.31135800000000	71.11875000000001	12.66641600000000	0.38717500000000	0.00000000000000	-0.07991900000000	0.00000000000000	27.14995700000000	0.00000000000000	0.00000000000000	8.40204500000000	0.00000000000000	
18.99826600000000	-54.43691200000000	764.82174599999996	51.38419200000000	0.15129700000000	0.00000000000000	0.11061800000000	-15.50632300000000	78.06417600000000	13.16113700000000	0.39018000000000	0.00000000000000	-0.08055400000000	0.00000000000000	27.00171400000000	0.00000000000000	0.00000000000000	8.83995100000000	0.00000000000000	
18.99993200000000	-54.88545300000000	760.74651200000005	50.92807400000000	0.15055300000000	0.00000000000000	0.11052100000000	-15.44227100000000	84.84314700000000	13.49173100000000	0.39294000000000	0.00000000000000	-0.08115300000000	0.00000000000000	26.85236200000000	0.00000000000000	0.00000000000000	9.18097000000000	0.00000000000000	
19.00159900000000	-55.34492300000000	756.59116400000005	50.45141200000000	0.14980900000000	0.00000000000000	0.11042100000000	-15.13635100000000	91.46094800000000	13.66612200000000	0.39549000000000	0.00000000000000	-0.08171800000000	0.00000000000000	26.70197000000000	0.00000000000000	0.00000000000000	9.42834700000000	0.00000000000000	
19.00326900000000	-55.81504400000000	752.35431400000004	49.95433100000000	0.14906500000000	0.00000000000000	0.11031700000000	-14.61290900000000	97.94215900000000	13.69742500000000	0.39785700000000	0.00000000000000	-0.08225300000000	0.00000000000000	26.55059900000000	0.00000000000000	0.00000000000000	9.58879000000000	0.00000000000000	
19.00493000000000	-56.29544700000000	748.03441799999996	49.43698400000000	0.14832000000000	0.00000000000000	0.11020900000000	-13.90083400000000	104.32574300000000	13.60221800000000	0.40006600000000	0.00000000000000	-0.08276100000000	0.00000000000000	26.39829700000000	0.00000000000000	0.00000000000000	9.67142500000000	0.00000000000000	
19.00660100000000	-56.78567200000000	743.62978199999998	48.89955100000000	0.14757600000000	0.00000000000000	0.11009800000000	-13.03099100000000	110.65978300000000	13.39883800000000	0.40213600000000	0.00000000000000	-0.08324400000000	0.00000000000000	26.24509900000000	0.00000000000000	0.00000000000000	9.68673100000000	0.00000000000000	
19.00826100000000	-57.28516800000000	739.13857299999995	48.34224400000000	0.14683300000000	0.00000000000000	0.10998300000000	-12.03392200000000	116.99637900000000	13.10582900000000	0.40408600000000	0.00000000000000	-0.08370500000000	0.00000000000000	26.09102700000000	0.00000000000000	0.00000000000000	9.64555400000000	0.00000000000000	
19.00993200000000	-57.79328900000000	734.55882899999995	47.76530500000000	0.14609000000000	0.00000000000000	0.10986500000000	-10.93795900000000	123.38707800000000	12.74062900000000	0.40593100000000	0.00000000000000	-0.08414500000000	0.00000000000000	25.93608900000000	0.00000000000000	0.00000000000000	9.55825800000000	0.00000000000000	
19.01159800000000	-58.30929300000000	729.88847099999998	47.16900400000000	0.14535000000000	0.00000000000000	0.10974300000000	-9.76782400000000	129.87909300000001	12.31857500000000	0.40768200000000	0.00000000000000	-0.08456500000000	0.00000000000000	25.78027900000000	0.00000000000000	0.00000000000000	9.43406400000000	0.00000000000000	
19.01326300000000	-58.83234700000000	725.12531300000001	46.55364300000000	0.14461200000000	0.00000000000000	0.10961700000000	-8.54374200000000	136.51248600000000	11.85223300000000	0.40935100000000	0.00000000000000	-0.08496800000000	0.00000000000000	25.62357700000000	0.00000000000000	0.00000000000000	9.28058900000000	0.00000000000000	
19.01492800000000	-59.36151900000000	720.26707699999997	45.91955600000000	0.14387700000000	0.00000000000000	0.10948800000000	-7.28103600000000	143.31833499999999	11.35106300000000	0.41094700000000	0.00000000000000	-0.08535300000000	0.00000000000000	25.46594800000000	0.00000000000000	0.00000000000000	9.10359600000000	0.00000000000000	
19.01660200000000	-59.89578400000000	715.31140700000003	45.26710800000000	0.14314600000000	0.00000000000000	0.10935500000000	-5.99015800000000	150.31787100000000	10.82136100000000	0.41247900000000	0.00000000000000	-0.08572300000000	0.00000000000000	25.30734000000000	0.00000000000000	0.00000000000000	8.90691800000000	0.00000000000000	
19.01826700000000	-60.43402400000000	710.25588300000004	44.59669400000000	0.14241900000000	0.00000000000000	0.10921800000000	-4.67707300000000	157.52245500000001	10.26646600000000	0.41395300000000	0.00000000000000	-0.08607700000000	0.00000000000000	25.14768800000000	0.00000000000000	0.00000000000000	8.69255100000000	0.00000000000000	
19.01992700000000	-60.97502700000000	705.09803799999997	43.90874400000000	0.14169800000000	0.00000000000000	0.10907700000000	-3.34389800000000	164.93425900000000	9.68713000000000	0.41537600000000	0.00000000000000	-0.08641800000000	0.00000000000000	24.98691100000000	0.00000000000000	0.00000000000000	8.46086100000000	0.00000000000000	
19.02159800000000	-61.51749300000000	699.83537300000000	43.20371600000000	0.14098300000000	0.00000000000000	0.10893300000000	-1.98970900000000	172.54745500000001	9.08202900000000	0.41675200000000	0.00000000000000	-0.08674500000000	0.00000000000000	24.82491200000000	0.00000000000000	0.00000000000000	8.21088300000000	0.00000000000000	
19.02326900000000	-62.06003300000000	694.46537699999999	42.48210400000000	0.14027500000000	0.00000000000000	0.10878400000000	-0.61141100000000	180.34974500000001	8.44832600000000	0.41808600000000	0.00000000000000	-0.08706000000000	0.00000000000000	24.66158000000000	0.00000000000000	0.00000000000000	7.94066300000000	0.00000000000000	
19.02493400000000	-62.60117200000000	688.98554300000001	41.74443200000000	0.13957500000000	0.00000000000000	0.10863300000000	0.79538100000000	188.32403900000000	7.78224500000000	0.41938100000000	0.00000000000000	-0.08736300000000	0.00000000000000	24.49679000000000	0.00000000000000	0.00000000000000	7.64761000000000	0.00000000000000	
19.02659400000000	-63.13935500000000	683.39339199999995	40.99125700000000	0.13888400000000	0.00000000000000	0.10847700000000	2.23554700000000	196.45015200000000	7.07961800000000	0.42064000000000	0.00000000000000	-0.08765400000000	0.00000000000000	24.33039900000000	0.00000000000000	0.00000000000000	7.32883900000000	0.00000000000000	
19.02826200000000	-63.67294700000000	677.68648800000005	40.22316700000000	0.13820200000000	0.00000000000000	0.10831700000000	3.71377200000000	204.70636500000001	6.33634700000000	0.42186600000000	0.00000000000000	-0.08793400000000	0.00000000000000	24.16225400000000	0.00000000000000	0.00000000000000	6.98147200000000	0.00000000000000	
